<svg xmlns="http://www.w3.org/2000/svg" xmlns:xlink="http://www.w3.org/1999/xlink" width="315" height="315" viewBox="0 0 315 315">
    <defs>
        <path id="a" d="M157.494 314.556C70.514 314.556 0 244.139 0 157.28 0 70.42 70.513.004 157.494.004c86.985 0 157.498 70.417 157.498 157.276 0 86.859-70.513 157.276-157.498 157.276z"/>
    </defs>
    <g fill="none" fill-rule="evenodd">
        <mask id="b" fill="#fff">
            <use xlink:href="#a"/>
        </mask>
        <use fill="#EBEBEB" xlink:href="#a"/>
        <g mask="url(#b)">
            <path stroke="#9F9F9F" stroke-linecap="round" stroke-linejoin="round" stroke-width="6.534" d="M211.313 143.124c2.09-1.01 4.394-1.279 6.538.274 0 0 3.726 3.774 1.225 13.238a70.523 70.523 0 0 0-1.138 5.19c-.243 1.343-.463 2.744-.538 4.111-.079 1.416.34 2.93-.043 4.328-.794 2.897-2.197 5.999-4.743 7.736-.868.591-1.824 1.061-2.847 1.28-.5 5.353-1.234 10.223-2.355 14.1-5.932 20.524-21.82 25.26-35.356 35.196-16.95 9.908-33.093-1.768-33.093-1.768-16.667-11.384-11.58-6.677-23.718-18.939-7-7.07-10.64-17.403-12.654-28.495-.289.022-.505.03-.604.023-1.336-.096-2.576-.65-3.668-1.397-2.55-1.737-3.952-4.839-4.746-7.736-.382-1.398.036-2.912-.04-4.328-.075-1.367-.294-2.768-.541-4.11a69.005 69.005 0 0 0-1.138-5.191c-2.5-9.464 1.225-13.238 1.225-13.238 2.114-1.53 3.173-1.248 5.24-.274M131.116 223.549s.304 26.87-11.981 38.058M197 264.225s-22.67-21.226-14.834-40.676"/>
            <path stroke="#9F9F9F" stroke-linecap="round" stroke-linejoin="round" stroke-width="6.534" d="M96.785 259.643c7.873-2.274 13.274-3.9 13.274-3.9s42.895 55.471 98.755 1.12l35.44 10.24s29.902 12.129 27.287 47.45c0 0-57.022 14.927-114.044 14.927S43.452 314.553 43.452 314.553c-1.992-26.876 14.859-40.33 23.03-45.227 2.568-1.538 4.279-2.232 4.279-2.232l6.29-2.516M129.536 55.623a48.064 48.064 0 0 0-4.528 5.75c0-.015-29.77 10.26-29.018 53.076-.316 4.966.578 15.611 1.712 26.31l1.08 2.65 7.13-18.219c2.586-12.607.981-20.093 9.694-29.725 0 0 17.606-15.627 37.168-3.93 0 0 19.953-13.654 39.391 2.367 0 0 7.948 8.205 9.908 28.911l8.66 20.596s1.726-7.382 2.358-23.676l.072-4.475-.626-12.373s-5.11-29.69 4.34-38.678c0 0-7.353-.39-12.84 4.688 0 0-.52-13.674 7.952-20.706 0 0-10.31 2.344-16.962 13.283 0 0-3.52-12.502 5.48-17.58 0 0-17.608-5.94-36.967-3.996"/>
            <path stroke="#9F9F9F" stroke-linecap="round" stroke-linejoin="round" stroke-width="6.5" d="M84.468 262.535c1.123-.324 3.437-.938 4.56-1.262l-4.56 1.262z"/>
            <g transform="rotate(46 35.446 190.047)">
                <path fill="#D8D8D8" stroke="#979797" stroke-linecap="round" stroke-linejoin="round" stroke-width="6.534" d="M11.951.53c-1.708 3.95-4.178 8.019-5.19 12.213L11.95.529z"/>
                <ellipse cx="4.755" cy="20.75" fill="#9F9F9F" rx="3.755" ry="3.75" transform="rotate(2 4.755 20.75)"/>
            </g>
        </g>
    </g>
</svg>
